<?xml version="1.0" encoding="utf-8"?>
<!-- Generator: Adobe Illustrator 22.0.1, SVG Export Plug-In . SVG Version: 6.00 Build 0)  -->
<svg version="1.1" id="图层_1" xmlns="http://www.w3.org/2000/svg" xmlns:xlink="http://www.w3.org/1999/xlink" x="0px" y="0px"
	 viewBox="0 0 84 166" style="enable-background:new 0 0 84 166;" xml:space="preserve">
<style type="text/css">
	.st0{fill:#FFFFFF;}
</style>
<g>
	<path class="st0" d="M42,84.4c-22.1,0-40,17.9-40,40s17.9,40,40,40s40-17.9,40-40S64.1,84.4,42,84.4z M42,160.4
		c-19.9,0-36-16.1-36-36s16.1-36,36-36s36,16.1,36,36S61.9,160.4,42,160.4z"/>
	<path class="st0" d="M44.9,124.4l10.6-10.6c0.8-0.8,0.8-2,0-2.8c-0.8-0.8-2-0.8-2.8,0L42,121.6L31.4,111c-0.8-0.8-2-0.8-2.8,0
		c-0.8,0.8-0.8,2,0,2.8l10.6,10.6L28.6,135c-0.8,0.8-0.8,2,0,2.8c0.8,0.8,2,0.8,2.8,0L42,127.2l10.6,10.6c0.8,0.8,2,0.8,2.8,0
		c0.8-0.8,0.8-2,0-2.8L44.9,124.4z"/>
	<path class="st0" d="M42.2,36.4c0.6,0,1-0.4,1-1v-1c0-0.6-0.4-1-1-1s-1,0.4-1,1v1C41.2,35.9,41.6,36.4,42.2,36.4z"/>
	<path class="st0" d="M42.2,22.4c0.6,0,1-0.4,1-1v-1c0-0.6-0.4-1-1-1s-1,0.4-1,1v1C41.2,21.9,41.6,22.4,42.2,22.4z"/>
	<path class="st0" d="M42.2,43.4c0.6,0,1-0.4,1-1v-1c0-0.6-0.4-1-1-1s-1,0.4-1,1v1C41.2,42.9,41.6,43.4,42.2,43.4z"/>
	<path class="st0" d="M43.2-0.6v1c0,0.6-0.4,1-1,1s-1-0.4-1-1v-1H43.2z"/>
	<path class="st0" d="M42.2,15.4c0.6,0,1-0.4,1-1v-1c0-0.6-0.4-1-1-1s-1,0.4-1,1v1C41.2,14.9,41.6,15.4,42.2,15.4z"/>
	<path class="st0" d="M42.2,8.4c0.6,0,1-0.4,1-1v-1c0-0.6-0.4-1-1-1s-1,0.4-1,1v1C41.2,7.9,41.6,8.4,42.2,8.4z"/>
	<path class="st0" d="M42.2,29.4c0.6,0,1-0.4,1-1v-1c0-0.6-0.4-1-1-1s-1,0.4-1,1v1C41.2,28.9,41.6,29.4,42.2,29.4z"/>
	<path class="st0" d="M42.2,78.4c0.6,0,1-0.4,1-1v-1c0-0.6-0.4-1-1-1s-1,0.4-1,1v1C41.2,77.9,41.6,78.4,42.2,78.4z"/>
	<path class="st0" d="M42.2,85.4c0.6,0,1-0.4,1-1v-1c0-0.6-0.4-1-1-1s-1,0.4-1,1v1C41.2,84.9,41.6,85.4,42.2,85.4z"/>
	<path class="st0" d="M42.2,71.4c0.6,0,1-0.4,1-1v-1c0-0.6-0.4-1-1-1s-1,0.4-1,1v1C41.2,70.9,41.6,71.4,42.2,71.4z"/>
	<path class="st0" d="M42.2,57.4c0.6,0,1-0.4,1-1v-1c0-0.6-0.4-1-1-1s-1,0.4-1,1v1C41.2,56.9,41.6,57.4,42.2,57.4z"/>
	<path class="st0" d="M42.2,64.4c0.6,0,1-0.4,1-1v-1c0-0.6-0.4-1-1-1s-1,0.4-1,1v1C41.2,63.9,41.6,64.4,42.2,64.4z"/>
	<path class="st0" d="M42.2,50.4c0.6,0,1-0.4,1-1v-1c0-0.6-0.4-1-1-1s-1,0.4-1,1v1C41.2,49.9,41.6,50.4,42.2,50.4z"/>
</g>
</svg>
