<?xml version="1.0" encoding="utf-8"?>
<!-- Generator: Adobe Illustrator 22.0.1, SVG Export Plug-In . SVG Version: 6.00 Build 0)  -->
<svg version="1.1" id="图层_1" xmlns="http://www.w3.org/2000/svg" xmlns:xlink="http://www.w3.org/1999/xlink" x="0px" y="0px"
	 viewBox="0 0 86 86" style="enable-background:new 0 0 86 86;" xml:space="preserve">
<style type="text/css">
	.st0{fill:#FFFFFF;}
</style>
<g id="WeChat">
	<path class="st0" d="M75.8,50.6c0-9.1-8.8-16.7-19.7-16.7s-19.7,7.3-19.7,16.7c0,9.4,8.8,16.7,19.7,16.7c2.2,0,4.3-0.3,6.4-0.9
		l0.3,0L70,70l-1.8-6.1l0.3,0C72.9,60.9,75.6,55.9,75.8,50.6z M49.1,47.5c-1.5,0-2.7-1.2-2.7-2.7c0-1.5,1.2-2.7,2.7-2.7
		c1.5,0,2.7,1.2,2.7,2.7c0,0,0,0,0,0C51.8,46.3,50.6,47.5,49.1,47.5z M62.7,47.6c-1.5,0-2.7-1.2-2.7-2.7c0-1.5,1.2-2.7,2.7-2.7
		c1.5,0,2.7,1.2,2.7,2.7c0,0,0,0,0,0C65.7,46.3,64.5,47.6,62.7,47.6z"/>
	<path class="st0" d="M33.6,16c-13,0-23.4,8.8-23.4,19.7c0.1,6.4,3.6,12.2,9.1,15.5l0.3,0l-2.1,7l8.5-4.2l0.3,0
		c2.4,0.6,4.8,0.9,7.3,0.9l1.5,0c-0.5-1.5-0.7-3-0.6-4.5c0-10,9.4-17.9,21.2-17.9l0.9,0C55.1,23.3,45.4,16,33.6,16z M25.4,32.1
		c-1.8,0-3.3-1.5-3.3-3.3c0-1.8,1.5-3.3,3.3-3.3s3.3,1.5,3.3,3.3C28.7,30.6,27.2,32.1,25.4,32.1z M41.8,32.1c-1.8,0-3.3-1.5-3.3-3.3
		c0-1.8,1.5-3.3,3.3-3.3c1.8,0,3.3,1.5,3.3,3.3C45.1,30.6,43.6,32.1,41.8,32.1z"/>
</g>
</svg>
