<?xml version="1.0" encoding="utf-8"?>
<!-- Generator: Adobe Illustrator 22.0.1, SVG Export Plug-In . SVG Version: 6.00 Build 0)  -->
<svg version="1.1" xmlns="http://www.w3.org/2000/svg" xmlns:xlink="http://www.w3.org/1999/xlink" x="0px" y="0px"
	 viewBox="0 0 88 60" style="enable-background:new 0 0 88 60;" xml:space="preserve">
<style type="text/css">
	.st0{fill-rule:evenodd;clip-rule:evenodd;fill:#4E4E4E;}
</style>
<g id="图层_1">
	<g>
		<g>
			<path class="st0" d="M53.5,19.5c0-0.8-0.7-1.5-1.5-1.5H36c-0.8,0-1.5,0.7-1.5,1.5c0,0.8,0.7,1.5,1.5,1.5h7.9
				c-0.3,0-0.7,0.2-0.9,0.4c0,0-0.1,0.1-0.1,0.1l-6.9,6.9c-0.6,0.6-0.6,1.5,0,2.1c0.6,0.6,1.5,0.6,2.1,0l4.5-4.5v16.4
				c0,0.8,0.7,1.5,1.5,1.5s1.5-0.7,1.5-1.5V26.1l4.5,4.5c0.6,0.6,1.5,0.6,2.1,0c0.6-0.6,0.6-1.5,0-2.1l-6.9-6.9c0,0-0.1-0.1-0.1-0.1
				c-0.3-0.3-0.6-0.4-0.9-0.4H52C52.8,21,53.5,20.3,53.5,19.5z"/>
		</g>
	</g>
</g>
<g id="图层_2">
</g>
</svg>
