<?xml version="1.0" encoding="utf-8"?>
<!-- Generator: Adobe Illustrator 22.0.1, SVG Export Plug-In . SVG Version: 6.00 Build 0)  -->
<svg version="1.1" id="图层_1" xmlns="http://www.w3.org/2000/svg" xmlns:xlink="http://www.w3.org/1999/xlink" x="0px" y="0px"
	 viewBox="0 0 80 80" style="enable-background:new 0 0 80 80;" xml:space="preserve">
<style type="text/css">
	.st0{fill-rule:evenodd;clip-rule:evenodd;fill:#4E4E4E;}
</style>
<path class="st0" d="M37.2,40L26.6,50.6c-0.8,0.8-0.8,2,0,2.8c0.8,0.8,2,0.8,2.8,0L40,42.8l10.6,10.6c0.8,0.8,2,0.8,2.8,0
	c0.8-0.8,0.8-2,0-2.8L42.8,40l10.6-10.6c0.8-0.8,0.8-2,0-2.8c-0.8-0.8-2-0.8-2.8,0L40,37.2L29.4,26.6c-0.8-0.8-2-0.8-2.8,0
	c-0.8,0.8-0.8,2,0,2.8L37.2,40z"/>
</svg>
