<?xml version="1.0" encoding="utf-8"?>
<!-- Generator: Adobe Illustrator 22.0.1, SVG Export Plug-In . SVG Version: 6.00 Build 0)  -->
<svg version="1.1" id="图层_1" xmlns="http://www.w3.org/2000/svg" xmlns:xlink="http://www.w3.org/1999/xlink" x="0px" y="0px"
	 viewBox="0 0 86 86" style="enable-background:new 0 0 86 86;" xml:space="preserve">
<style type="text/css">
	.st0{fill:#FFFFFF;}
</style>
<path class="st0" d="M34.8,44.6c-5.7,0.6-11.1,6-10.4,11.1c0.6,5.1,5.4,7.9,11.4,7.6c5.6,0,10.1-4.5,10.1-10.1
	c-0.6-5.4-5.5-9.2-10.9-8.6C34.9,44.6,34.8,44.6,34.8,44.6z M32.6,58.2c-1.6,0.3-3.2-0.4-4-1.9c-0.3-1.3,0.9-3.2,3.2-3.5
	c1.6-0.3,3.2,0.4,4,1.9C36,56.3,34.8,57.9,32.6,58.2z M64.5,37.6c1,0,1.9-0.6,2.2-1.6l0,0c0.3-0.8,0.4-1.7,0.3-2.5
	c0-4.7-3.8-8.5-8.5-8.5c0,0-0.1,0-0.1,0c-0.5-0.1-1.1,0-1.6,0.3c-1,0.3-1.7,1.2-1.9,2.2c0,1.2,0.9,2.2,2.1,2.2c0,0,0.1,0,0.1,0h1.3
	c2-0.2,3.8,1.3,4,3.3c0,0.2,0,0.4,0,0.7c0,0.4-0.1,0.9-0.3,1.3l0,0v0.6C62.4,36.7,63.4,37.5,64.5,37.6z M58.8,16.1
	c-1.2-0.1-2.3,0.1-3.5,0.3c-1.2,0.2-2.2,1.3-2.2,2.5c0,1.6,1.3,2.8,2.8,2.8c0,0,0,0,0,0h0.6c0.8-0.3,1.7-0.4,2.5-0.3
	c6.6,0,11.9,5.3,11.9,11.9c0,1.3-0.3,2.7-0.6,4l0,0v0.9c0,1.6,1.3,2.8,2.8,2.8c1.3,0.1,2.5-0.8,2.7-2.1c0.4-1.7,0.6-3.4,0.6-5.1
	C76.5,24.2,68.6,16.2,58.8,16.1z M58.5,41.4c0.9-3.2,2.2-7.6-0.9-9.2c-4.9-1.4-10.2-1-14.9,1.3c0.3-1.7,0.4-3.4,0.3-5.1
	c0-2.6-1.9-4.8-4.4-5.2c-12,0-28.8,17.9-28.8,27.7c-0.3,4,1.4,7.9,4.4,10.4c6.6,5.6,15.1,8.6,23.7,8.2c10.5,0.4,20.7-3.9,27.7-11.9
	c1.7-2.1,2.6-4.8,2.5-7.6C67.7,46.2,64.2,43,58.5,41.4z M37.3,65.8c-10.8,0.6-20.2-4.4-20.6-11.4S24.7,40.2,37,39.8
	c11.4-0.3,18.7,4.4,19.3,11.4S48.1,65.1,37.3,65.8z"/>
</svg>
