<?xml version="1.0" encoding="utf-8"?>
<!-- Generator: Adobe Illustrator 22.0.1, SVG Export Plug-In . SVG Version: 6.00 Build 0)  -->
<svg version="1.1" id="图层_1" xmlns="http://www.w3.org/2000/svg" xmlns:xlink="http://www.w3.org/1999/xlink" x="0px" y="0px"
	 viewBox="0 0 80 80" style="enable-background:new 0 0 80 80;" xml:space="preserve">
<style type="text/css">
	.st0{fill-rule:evenodd;clip-rule:evenodd;fill:#4E4E4E;}
</style>
<g>
	<path class="st0" d="M23,30h34c1.1,0,2-0.9,2-2c0-1.1-0.9-2-2-2H23c-1.1,0-2,0.9-2,2C21,29.1,21.9,30,23,30z"/>
	<path class="st0" d="M57,38H23c-1.1,0-2,0.9-2,2c0,1.1,0.9,2,2,2h34c1.1,0,2-0.9,2-2C59,38.9,58.1,38,57,38z"/>
	<path class="st0" d="M57,50H23c-1.1,0-2,0.9-2,2c0,1.1,0.9,2,2,2h34c1.1,0,2-0.9,2-2C59,50.9,58.1,50,57,50z"/>
</g>
</svg>
