<?xml version="1.0" encoding="utf-8"?>
<!-- Generator: Adobe Illustrator 22.0.1, SVG Export Plug-In . SVG Version: 6.00 Build 0)  -->
<svg version="1.1" id="图层_1" xmlns="http://www.w3.org/2000/svg" xmlns:xlink="http://www.w3.org/1999/xlink" x="0px" y="0px"
	 viewBox="0 0 287.4 52.3" style="enable-background:new 0 0 287.4 52.3;" xml:space="preserve">
<style type="text/css">
	.st0{fill:#4E4E4E;}
</style>
<g>
	<g>
		<path class="st0" d="M12,16.1c-0.5,0-1,0.4-1,1s0.4,1,1,1c0.5,0,1-0.4,1-1S12.6,16.1,12,16.1z M24,4.6C10.8,4.6,0.1,15.3,0.1,28.4
			S10.8,52.1,24,52.1s23.9-10.7,23.9-23.7C47.9,15.2,37.1,4.6,24,4.6z M24,50.8c-12.5,0-22.6-10.1-22.6-22.5S11.5,5.8,24,5.8
			s22.6,10.1,22.6,22.5S36.4,50.8,24,50.8z M4.8,9.1C5,9.1,5.1,9,5.2,8.9l0,0c2.5-2.4,5.4-4.3,8.7-5.6H34c3.2,1.3,6.1,3.2,8.6,5.5
			c0,0,0,0,0.1,0C42.8,9,43,9.1,43.2,9.1c0.4,0,0.7-0.3,0.7-0.6c0-0.2-0.1-0.4-0.2-0.5l0,0c-5.1-4.9-12-7.9-19.6-7.9S9.5,3.1,4.4,8
			l0,0C4.3,8.1,4.2,8.3,4.2,8.4C4.1,8.8,4.4,9.1,4.8,9.1z M24,1.4c2,0,4,0.2,5.9,0.6H18.1C20,1.6,21.9,1.4,24,1.4z M76.2,25.2h-8.5
			v-6.8h-2.5v16.2h2.5v-7.3h8.5v7.3h2.5V18.3h-2.5V25.2z M91.3,18c-2.5,0-4.4,0.8-5.8,2.4c-1.4,1.5-2,3.5-2,6s0.7,4.5,2,6
			c1.4,1.6,3.4,2.4,5.8,2.4c2.5,0,4.4-0.8,5.8-2.4c1.4-1.5,2-3.5,2-6s-0.7-4.5-2-6.1C95.7,18.8,93.8,18,91.3,18z M95.3,31
			c-0.9,1.1-2.3,1.7-4,1.7s-3.1-0.6-4-1.7c-0.9-1.1-1.4-2.6-1.4-4.5s0.5-3.4,1.4-4.5c1-1.2,2.3-1.8,4-1.8s3.1,0.5,4,1.7
			c0.9,1.1,1.4,2.6,1.4,4.6C96.7,28.4,96.2,29.9,95.3,31z M106.4,18.3h-2.5v16.2h11.4v-2.1h-8.9V18.3z M126.8,18
			c-2.5,0-4.4,0.8-5.8,2.4c-1.4,1.5-2,3.5-2,6s0.7,4.5,2,6c1.4,1.6,3.4,2.4,5.8,2.4c2.5,0,4.4-0.8,5.8-2.4c1.4-1.5,2-3.5,2-6
			s-0.7-4.5-2-6.1C131.2,18.8,129.3,18,126.8,18z M130.8,31c-0.9,1.1-2.3,1.7-4,1.7s-3.1-0.6-4-1.7c-0.9-1.1-1.4-2.6-1.4-4.5
			s0.5-3.4,1.4-4.5c1-1.2,2.3-1.8,4-1.8s3.1,0.5,4,1.7c0.9,1.1,1.4,2.6,1.4,4.6C132.2,28.4,131.7,29.9,130.8,31z M157.6,15.9h-2.2v2
			H150v-2h-2.2v2h-5.1v2h5.1v1.8h2.2v-1.8h5.4v1.8h2.2v-1.8h5.1v-2h-5.1V15.9z M159.8,33.9c-0.3,0.3-0.8,0.5-1.4,0.5h-11.1
			c-0.4,0-0.6-0.2-0.6-0.5c0.1-0.4,0.5-0.9,1-1.5c1.8-1.8,5.9-4.4,12.1-7.8v-2.1h-15.1v2.1h11.5c-4.5,2.4-7.7,4.5-9.6,6.2
			c-1.5,1.3-2.2,2.5-2.2,3.4c0,1.4,1,2.1,3,2.1h11.2c1.2,0,2.1-0.3,2.7-0.8c0.6-0.5,1.1-2.1,1.3-4.8l-2-0.8
			C160.4,32.3,160.1,33.6,159.8,33.9z M180.7,23.2h6.7v-2.1h-8.6v-5.3h-2.1v5.3h-8.6v2.1h6.6c-1.5,3.8-4,7-7.4,9.5l1.2,1.9
			c3.8-2.9,6.6-6.7,8.2-11.2v13.5h2.1V23.3c1.5,4.1,4.1,7.9,7.9,11.2l1.5-1.8C184.6,29.9,182.2,26.8,180.7,23.2z M185.4,19.5
			c-0.7-1-1.7-2.2-3-3.5l-1.7,1c1.2,1.4,2.2,2.6,3,3.7L185.4,19.5z M201.6,36.7h2.1v-1.1h5.7v1.1h2.1v-9.4h-9.9L201.6,36.7
			L201.6,36.7z M203.6,29.3h5.7v4.2h-5.7V29.3z M207.5,16h-2c-1.5,2.8-3.5,5.1-5.9,6.8l1.2,1.8c0.6-0.5,1.2-1,1.8-1.6v1.9h7.4v-2
			c0.6,0.6,1.2,1.1,1.9,1.6l1.2-1.8C210.7,20.9,208.8,18.7,207.5,16z M202.8,22.9c1.3-1.4,2.6-3,3.7-4.9c1,1.9,2.2,3.5,3.6,4.9
			H202.8z M196,24.9c-1,1.9-1.8,3.2-2.5,3.9c-0.3,0.3-0.6,0.5-1,0.6l0.6,2c2.2-0.3,4.5-0.9,6.9-1.7v-1.9c-1.5,0.5-3,1-4.4,1.3
			c1.2-1.6,2.7-4.2,4.6-7.8l-1.9-0.7c-0.4,0.9-0.8,1.7-1.2,2.5c-0.8,0.1-1.5,0.3-2.3,0.3c1.1-1.7,2.2-3.9,3.3-6.7l-2-0.8
			c-0.8,2.5-1.8,4.8-3,6.8c-0.3,0.4-0.6,0.7-0.9,0.8l0.5,2C193.9,25.3,195,25.1,196,24.9z M192.7,36.1c2.9-0.5,5.5-1.2,7.7-2v-2
			c-2.3,0.8-4.9,1.5-8,2L192.7,36.1z M237.5,26.5v-1.9h-10.7c0.2-0.5,0.5-0.9,0.7-1.4h8.4v-1.8h-7.7c0.1-0.4,0.3-0.9,0.4-1.3h8.5
			v-1.9H232c0.4-0.5,0.7-1.1,1-1.7l-2.1-0.8c-0.4,0.9-0.9,1.7-1.4,2.4h-3.9c-0.5-0.9-1-1.6-1.6-2.4l-1.9,0.9
			c0.4,0.4,0.7,0.9,1.1,1.4h-5.1v1.9h8.2c-0.1,0.5-0.3,0.9-0.4,1.3h-6.5V23h5.8c-0.2,0.5-0.5,0.9-0.8,1.4h-6.7v1.9h5.2
			c-1.5,1.5-3.4,2.7-5.7,3.4l1.2,1.9c2-0.7,3.7-1.7,5.2-3V30c-0.1,1.2-0.4,2.3-1,3s-1.9,1.3-3.7,1.8l1.2,1.8c2-0.5,3.4-1.3,4.2-2.3
			c0.9-1.1,1.4-2.5,1.5-4.3v-1.8h-1.7c0.6-0.6,1.2-1.2,1.7-1.9h4.3c0.5,0.7,1,1.3,1.7,1.9h-1.4v8.5h2.2v-7.8c1.3,1,2.9,2,4.8,2.7
			l0.9-2c-2.6-0.8-4.6-2-5.9-3.4h5.1V26.5z M253.6,29.4h6.8v-2h-15.7v2h6.7v4.7h-8.6v2.1h19.5v-2.1h-8.7V29.4z M252.9,15.7l-2.4,0.4
			c0.3,0.6,0.6,1.2,0.9,1.9h-8.7v4.8h2.2V20h15.2v2.8h2.2V18h-8.7C253.4,17.2,253.2,16.4,252.9,15.7z M254.8,21.1l-1.1,1.7
			c2.2,1,4.3,2.3,6.4,4l1.2-1.8C259.3,23.5,257.2,22.2,254.8,21.1z M249.8,21.3c-1.6,1.5-3.7,2.6-6.2,3.5l0.9,2c2.6-1,4.8-2.4,6.6-4
			L249.8,21.3z M276.2,16.9v2h8.6v14.6c0,0.8-0.3,1.3-0.9,1.3h-2l0.5,2h1.9c1.7,0,2.6-0.9,2.6-2.6V16.9H276.2z M272,15.7l-2,0.9
			c1,1.2,1.9,2.6,2.8,4.2l2-1C273.9,18.3,273,16.9,272,15.7z M268.2,37h2.1V19.7h-2.1V37z M281.9,22h-9v11h9V22z M279.9,31.1h-5
			v-2.7h5V31.1z M279.9,26.5h-5v-2.7h5V26.5z"/>
	</g>
</g>
</svg>
